<svg width="133" height="36" viewBox="0 0 133 36" fill="none" xmlns="http://www.w3.org/2000/svg">
<path d="M43.5618 27.791V9.62527H45.7935V17.3763L45.3855 17.1603C45.7055 16.3444 46.2174 15.7125 46.9214 15.2646C47.6413 14.8006 48.4812 14.5687 49.441 14.5687C50.3689 14.5687 51.1928 14.7766 51.9127 15.1926C52.6486 15.6085 53.2246 16.1845 53.6405 16.9204C54.0725 17.6563 54.2884 18.4882 54.2884 19.4161V27.791H52.0327V20.136C52.0327 19.4161 51.8967 18.8081 51.6248 18.3122C51.3688 17.8163 51.0088 17.4323 50.5449 17.1603C50.081 16.8724 49.545 16.7284 48.9371 16.7284C48.3452 16.7284 47.8092 16.8724 47.3293 17.1603C46.8494 17.4323 46.4734 17.8243 46.2014 18.3362C45.9295 18.8321 45.7935 19.4321 45.7935 20.136V27.791H43.5618ZM63.4332 28.079C62.1853 28.079 61.0735 27.783 60.0976 27.1911C59.1217 26.5992 58.3538 25.7913 57.7939 24.7674C57.2339 23.7275 56.954 22.5677 56.954 21.2878C56.954 19.992 57.2259 18.8401 57.7699 17.8323C58.3298 16.8244 59.0817 16.0325 60.0256 15.4565C60.9855 14.8646 62.0574 14.5687 63.2412 14.5687C64.2011 14.5687 65.049 14.7446 65.7849 15.0966C66.5368 15.4325 67.1687 15.8965 67.6807 16.4884C68.2086 17.0643 68.6085 17.7283 68.8805 18.4802C69.1685 19.2161 69.3124 19.984 69.3124 20.7839C69.3124 20.9599 69.2965 21.1598 69.2645 21.3838C69.2485 21.5918 69.2245 21.7918 69.1925 21.9837H58.5858V20.064H67.8966L66.8408 20.9279C66.9847 20.096 66.9047 19.3521 66.6008 18.6961C66.2968 18.0402 65.8489 17.5203 65.257 17.1363C64.665 16.7524 63.9931 16.5604 63.2412 16.5604C62.4893 16.5604 61.8014 16.7524 61.1775 17.1363C60.5535 17.5203 60.0656 18.0722 59.7136 18.7921C59.3777 19.496 59.2417 20.3359 59.3057 21.3118C59.2417 22.2557 59.3857 23.0876 59.7376 23.8075C60.1056 24.5114 60.6175 25.0634 61.2734 25.4633C61.9454 25.8473 62.6733 26.0392 63.4572 26.0392C64.3211 26.0392 65.049 25.8393 65.6409 25.4393C66.2328 25.0394 66.7128 24.5274 67.0807 23.9035L68.9525 24.8634C68.6965 25.4553 68.2966 25.9992 67.7526 26.4952C67.2247 26.9751 66.5928 27.3591 65.8569 27.647C65.137 27.935 64.3291 28.079 63.4332 28.079ZM70.5241 27.791L75.0595 21.3118L70.5481 14.8566H73.2358L77.0993 20.4719H75.7315L79.547 14.8566H82.2587L77.7472 21.3118L82.2347 27.791H79.547L75.7315 22.1757H77.0753L73.2598 27.791H70.5241ZM84.2442 27.791V9.62527H86.4759V27.791H84.2442ZM95.8901 28.079C94.6422 28.079 93.5304 27.783 92.5545 27.1911C91.5786 26.5992 90.8107 25.7913 90.2508 24.7674C89.6909 23.7275 89.4109 22.5677 89.4109 21.2878C89.4109 19.992 89.6829 18.8401 90.2268 17.8323C90.7867 16.8244 91.5386 16.0325 92.4825 15.4565C93.4424 14.8646 94.5143 14.5687 95.6981 14.5687C96.658 14.5687 97.5059 14.7446 98.2418 15.0966C98.9937 15.4325 99.6256 15.8965 100.138 16.4884C100.665 17.0643 101.065 17.7283 101.337 18.4802C101.625 19.2161 101.769 19.984 101.769 20.7839C101.769 20.9599 101.753 21.1598 101.721 21.3838C101.705 21.5918 101.681 21.7918 101.649 21.9837H91.0427V20.064H100.354L99.2977 20.9279C99.4417 20.096 99.3617 19.3521 99.0577 18.6961C98.7537 18.0402 98.3058 17.5203 97.7139 17.1363C97.1219 16.7524 96.45 16.5604 95.6981 16.5604C94.9462 16.5604 94.2583 16.7524 93.6344 17.1363C93.0104 17.5203 92.5225 18.0722 92.1706 18.7921C91.8346 19.496 91.6986 20.3359 91.7626 21.3118C91.6986 22.2557 91.8426 23.0876 92.1946 23.8075C92.5625 24.5114 93.0744 25.0634 93.7304 25.4633C94.4023 25.8473 95.1302 26.0392 95.9141 26.0392C96.778 26.0392 97.5059 25.8393 98.0978 25.4393C98.6897 25.0394 99.1697 24.5274 99.5376 23.9035L101.409 24.8634C101.153 25.4553 100.753 25.9992 100.21 26.4952C99.6816 26.9751 99.0497 27.3591 98.3138 27.647C97.5939 27.935 96.786 28.079 95.8901 28.079ZM108.307 28.079C107.459 28.079 106.707 27.927 106.051 27.623C105.411 27.3031 104.907 26.8711 104.539 26.3272C104.171 25.7673 103.987 25.1273 103.987 24.4074C103.987 23.7195 104.131 23.1036 104.419 22.5597C104.723 21.9997 105.187 21.5278 105.811 21.1438C106.451 20.7599 107.251 20.4879 108.211 20.3279L113.01 19.536V21.4078L108.715 22.1277C107.883 22.2717 107.275 22.5357 106.891 22.9196C106.523 23.3036 106.339 23.7755 106.339 24.3354C106.339 24.8634 106.547 25.3033 106.963 25.6553C107.395 26.0072 107.931 26.1832 108.571 26.1832C109.387 26.1832 110.09 26.0152 110.682 25.6793C111.29 25.3273 111.762 24.8554 112.098 24.2635C112.45 23.6715 112.626 23.0156 112.626 22.2957V19.0081C112.626 18.3042 112.362 17.7363 111.834 17.3043C111.322 16.8564 110.642 16.6324 109.794 16.6324C109.059 16.6324 108.403 16.8244 107.827 17.2083C107.267 17.5763 106.851 18.0722 106.579 18.6961L104.635 17.6883C104.875 17.0963 105.259 16.5684 105.787 16.1045C106.315 15.6245 106.931 15.2486 107.635 14.9766C108.339 14.7046 109.075 14.5687 109.842 14.5687C110.834 14.5687 111.706 14.7606 112.458 15.1446C113.21 15.5125 113.794 16.0325 114.21 16.7044C114.642 17.3603 114.858 18.1282 114.858 19.0081V27.791H112.674V25.3433L113.082 25.4873C112.81 25.9992 112.442 26.4472 111.978 26.8311C111.514 27.2151 110.97 27.519 110.346 27.743C109.723 27.967 109.043 28.079 108.307 28.079ZM118.318 32.5904V14.8566H120.502V17.6403L120.214 17.0883C120.694 16.3204 121.35 15.7125 122.182 15.2646C123.014 14.8006 123.965 14.5687 125.037 14.5687C126.253 14.5687 127.341 14.8646 128.301 15.4565C129.277 16.0485 130.045 16.8564 130.605 17.8802C131.165 18.8881 131.444 20.04 131.444 21.3358C131.444 22.5997 131.165 23.7435 130.605 24.7674C130.045 25.7913 129.277 26.5992 128.301 27.1911C127.341 27.783 126.245 28.079 125.013 28.079C123.973 28.079 123.022 27.847 122.158 27.3831C121.31 26.9191 120.654 26.2632 120.19 25.4153L120.55 25.0314V32.5904H118.318ZM124.845 25.9192C125.661 25.9192 126.389 25.7193 127.029 25.3193C127.669 24.9194 128.165 24.3754 128.517 23.6875C128.885 22.9836 129.069 22.1997 129.069 21.3358C129.069 20.4399 128.885 19.656 128.517 18.9841C128.165 18.2962 127.669 17.7523 127.029 17.3523C126.389 16.9364 125.661 16.7284 124.845 16.7284C124.029 16.7284 123.294 16.9284 122.638 17.3283C121.998 17.7283 121.486 18.2802 121.102 18.9841C120.734 19.672 120.55 20.4559 120.55 21.3358C120.55 22.1997 120.734 22.9836 121.102 23.6875C121.486 24.3754 121.998 24.9194 122.638 25.3193C123.294 25.7193 124.029 25.9192 124.845 25.9192Z" fill="white"/>
<path fill-rule="evenodd" clip-rule="evenodd" d="M18.306 1.60051L15.5339 0L0.00195312 8.96736V26.9021L7.11478 31.0087V18.5099V15.3726V10.9043L10.2521 9.10888V15.3726H18.306V1.60051ZM21.4433 3.41181V22.0654H31.0658V8.96736L21.4433 3.41181ZM31.0658 25.2026H18.306V23.6341V22.0654V18.5099H10.2521V32.82L15.5339 35.8694L31.0658 26.9021V25.2026Z" fill="url(#paint0_linear_107_162)"/>
<defs>
<linearGradient id="paint0_linear_107_162" x1="0.00195374" y1="9.30723" x2="31.0609" y2="27.1374" gradientUnits="userSpaceOnUse">
<stop stop-color="#CA41FE"/>
<stop offset="1" stop-color="#452AFF"/>
</linearGradient>
</defs>
</svg>
